<svg width="1155" height="394" viewBox="0 0 1155 394" fill="none" xmlns="http://www.w3.org/2000/svg">
<path opacity="0.3" fill-rule="evenodd" clip-rule="evenodd" d="M35 0C15.67 0 0 15.67 0 35V153.414C79.6521 150.745 157.5 84.7481 157.5 0.000152588H162.5C162.5 87.9542 81.9479 155.749 0 158.416V331.346C8.86511 331.908 19.927 333.772 31.8437 335.78L31.8448 335.78C35.2216 336.349 38.6672 336.93 42.1508 337.496C60.5567 340.485 80.2694 343.118 97.7012 341.903C115.152 340.686 129.797 335.653 138.689 323.822C147.595 311.973 151.24 292.634 145.048 261.585C144.185 257.254 143.472 253.12 142.905 249.172C138.37 217.601 146.752 194.144 160.701 175.252C173.58 157.809 191.212 144.269 207.414 131.827L207.424 131.82C208.637 130.888 209.841 129.963 211.036 129.043C228.406 115.658 243.282 103.485 249.502 88.7033C255.552 74.3249 253.598 56.8285 235.316 32.1735C227.954 22.2461 223 11.5742 223 0.000152588H228C228 10.0958 232.315 19.7334 239.332 29.1953C258.196 54.6348 261.106 74.0194 254.111 90.6426C247.285 106.862 231.206 119.812 214.087 133.004C212.92 133.903 211.747 134.805 210.569 135.709C194.256 148.241 177.165 161.371 164.723 178.222C151.486 196.15 143.522 218.302 147.855 248.461C148.408 252.312 149.104 256.357 149.952 260.607C156.26 292.24 152.843 313.313 142.686 326.826C132.516 340.356 116.098 345.633 98.0488 346.891C79.9806 348.15 59.7558 345.421 41.3492 342.431C37.7422 341.845 34.2136 341.251 30.7867 340.674L30.7806 340.673L30.7803 340.673C19.0034 338.691 8.4276 336.911 0 336.354V359C0 378.33 15.67 394 35 394H167.001C167.058 381.676 169.332 372.077 173.372 364.555C177.475 356.912 183.314 351.576 190.148 347.727C196.945 343.898 204.722 341.542 212.74 339.803C218.536 338.546 224.58 337.588 230.526 336.646C232.776 336.29 235.011 335.936 237.214 335.568C253.55 332.844 268.159 329.354 277.346 319.347C286.384 309.503 290.74 292.632 284.548 261.585C283.685 257.254 282.972 253.12 282.405 249.172C277.87 217.601 286.252 194.144 300.201 175.252C313.08 157.809 330.712 144.269 346.914 131.827L346.95 131.8L346.989 131.769C348.18 130.855 349.363 129.947 350.536 129.043C367.906 115.658 382.782 103.485 389.002 88.7033C395.052 74.3249 393.098 56.8285 374.816 32.1735C367.454 22.2461 362.5 11.5742 362.5 0.000152588H367.5C367.5 10.0958 371.815 19.7334 378.832 29.1953C397.696 54.6348 400.606 74.0194 393.611 90.6426C386.785 106.862 370.706 119.812 353.587 133.004C352.442 133.886 351.29 134.771 350.135 135.659L350.092 135.692L350.069 135.709C333.756 148.241 316.665 161.371 304.223 178.222C290.986 196.15 283.022 218.302 287.355 248.461C287.908 252.312 288.604 256.357 289.452 260.607C295.76 292.241 291.678 311.13 281.029 322.729C270.529 334.166 254.2 337.805 238.036 340.5C235.743 340.883 233.453 341.245 231.173 341.607C225.277 342.541 219.447 343.464 213.799 344.69C205.997 346.382 198.773 348.607 192.602 352.083C186.468 355.538 181.368 360.232 177.777 366.92C174.22 373.543 172.058 382.281 172.001 394H391.496C391.364 384.076 387.075 374.591 380.168 365.276C361.303 339.837 358.394 320.452 365.389 303.829C372.214 287.609 388.293 274.659 405.412 261.468C406.579 260.568 407.753 259.667 408.931 258.762C425.243 246.23 442.335 233.1 454.776 216.249C468.013 198.321 475.977 176.169 471.645 146.01C471.092 142.159 470.395 138.114 469.548 133.865C463.239 102.23 467.321 83.3417 477.97 71.7425C488.471 60.3057 504.8 56.6669 520.963 53.9714C523.257 53.5889 525.546 53.2261 527.826 52.8649C533.723 51.9307 539.552 51.007 545.2 49.782C553.003 48.0895 560.226 45.8647 566.398 42.3884C572.532 38.9331 577.631 34.2396 581.223 27.5514C584.827 20.8397 587 11.9564 587 0.00012207H592C592 12.551 589.719 22.2985 585.628 29.9169C581.524 37.559 575.686 42.8952 568.851 46.7449C562.054 50.5737 554.278 52.9292 546.26 54.6683C540.464 55.9255 534.42 56.8832 528.473 57.8253C526.224 58.1817 523.988 58.5359 521.786 58.9033C505.449 61.6276 490.841 65.117 481.654 75.124C472.615 84.9686 468.26 101.839 474.451 132.887C475.315 137.217 476.027 141.352 476.594 145.299C481.129 176.871 472.747 200.328 458.799 219.219C445.92 236.663 428.287 250.203 412.085 262.645L412.05 262.672L412.027 262.689C410.831 263.608 409.642 264.521 408.464 265.428C391.094 278.814 376.218 290.986 369.998 305.768C363.947 320.147 365.901 337.643 384.184 362.298C391.445 372.09 396.364 382.607 396.497 394H499.501C499.596 369.207 507.217 353.828 518.664 343.855C530.034 333.95 544.875 329.673 558.559 326.345C560.369 325.904 562.155 325.482 563.911 325.066C568.881 323.89 573.617 322.769 578.024 321.456C583.975 319.682 589.055 317.63 592.958 314.821C596.798 312.058 599.497 308.567 600.76 303.79C602.041 298.942 601.902 292.539 599.585 283.894C588.964 244.269 591.555 217.368 602.838 199.306C623.949 165.511 650.045 147.119 671.37 132.088L671.372 132.086L671.374 132.085L671.375 132.084C677.531 127.745 683.289 123.687 688.414 119.619C699.92 110.488 708.178 101.416 711.435 89.1401C714.699 76.8335 713.064 60.8092 703.58 37.5251C698.412 24.8357 695 12.1307 695 0.000152588H700C700 11.2349 703.17 23.2639 708.211 35.6391C717.881 59.3814 719.931 76.6099 716.267 90.422C712.596 104.264 703.314 114.178 691.523 123.535C686.107 127.834 680.146 132.039 673.856 136.476L673.851 136.48L673.847 136.483L673.845 136.484C652.602 151.47 627.597 169.109 607.079 201.955C596.858 218.317 593.953 243.568 604.414 282.599C606.863 291.737 607.175 299.085 605.594 305.067C603.994 311.121 600.52 315.54 595.878 318.88C591.3 322.174 585.591 324.418 579.452 326.248C574.896 327.606 569.955 328.775 564.942 329.961L564.941 329.961L564.937 329.962L564.934 329.963L564.93 329.964C563.205 330.372 561.47 330.782 559.74 331.203C546.041 334.535 532.307 338.6 521.948 347.625C511.806 356.461 504.595 370.343 504.501 394H726.778C726.691 382.9 723.539 371.035 718.569 358.832C708.899 335.09 706.849 317.862 710.512 304.049C714.184 290.207 723.466 280.294 735.257 270.936C740.675 266.636 746.638 262.429 752.931 257.99L752.932 257.989L752.935 257.987C774.178 243.002 799.183 225.362 819.701 192.516C829.922 176.155 832.827 150.904 822.365 111.872C819.916 102.734 819.605 95.3867 821.186 89.4041C822.786 83.3507 826.26 78.9319 830.902 75.5919C835.48 72.2972 841.189 70.0531 847.328 68.2235C851.884 66.8659 856.825 65.6967 861.838 64.5105L861.839 64.5103L861.842 64.5095C863.571 64.1006 865.307 63.6897 867.039 63.2683C880.739 59.9361 894.473 55.871 904.832 46.8464C915.041 37.9521 922.28 23.9445 922.28 0.00012207H927.28C927.28 25.07 919.635 40.5808 908.116 50.6164C896.746 60.5218 881.905 64.7982 868.221 68.1266C866.411 68.567 864.625 68.9896 862.868 69.4053C857.899 70.5812 853.163 71.7021 848.756 73.0153C842.804 74.7891 837.725 76.8416 833.822 79.6503C829.982 82.4136 827.283 85.9047 826.02 90.6815C824.739 95.5291 824.878 101.932 827.195 110.578C837.815 150.203 835.225 177.103 823.942 195.165C802.831 228.96 776.735 247.353 755.41 262.384L755.408 262.385L755.406 262.386C749.25 266.725 743.492 270.784 738.365 274.853C726.859 283.984 718.601 293.055 715.345 305.331C712.081 317.638 713.716 333.662 723.2 356.946C728.301 369.471 731.691 382.012 731.778 394H924C924 377.424 917.97 363.881 909.659 351.577C905.495 345.412 900.776 339.584 895.963 333.84C894.846 332.507 893.722 331.176 892.598 329.845C888.908 325.476 885.227 321.116 881.837 316.728C873.563 306.02 872.587 295.234 875.924 284.484C879.194 273.951 886.596 263.469 894.895 252.992C897.482 249.726 900.155 246.461 902.843 243.178C908.892 235.791 915.013 228.316 920.381 220.546C928.104 209.367 933.999 197.933 935.58 185.973C939.823 153.877 950.712 117.615 968.718 90.0375C986.731 62.4489 1012.19 43.1418 1045.46 46.203C1063.96 47.9048 1083.82 55.1642 1102.75 62.0835L1103.41 62.3231L1104.95 62.885C1123.1 69.5113 1140.22 75.5721 1155 76.5421V35C1155 15.67 1139.33 0 1120 0H35ZM1155 81.551C1139.21 80.581 1121.26 74.1629 1103.23 67.5818L1101.32 66.8823C1082.15 59.8795 1062.84 52.8226 1045 51.1819C1014.3 48.3573 990.379 66.0076 972.905 92.771C955.424 119.545 944.714 155.03 940.537 186.628C938.804 199.74 932.396 211.951 924.495 223.388C919.007 231.331 912.669 239.072 906.559 246.535L906.557 246.538C903.903 249.779 901.293 252.967 898.814 256.097C890.515 266.574 883.666 276.413 880.7 285.966C877.801 295.303 878.604 304.367 885.793 313.671C889.111 317.965 892.695 322.21 896.37 326.561C897.505 327.906 898.649 329.26 899.796 330.629C904.63 336.4 909.487 342.389 913.803 348.778C922.452 361.582 929 376.095 929 394H1120C1139.33 394 1155 378.33 1155 359V172.676C1088.99 173.994 1049.64 207.976 1026.59 251.889C1002.98 296.855 996.5 352.237 996.5 393.529H991.5C991.5 351.873 998.017 295.559 1022.16 249.565C1045.94 204.278 1086.83 169.002 1155 167.675V81.551Z" fill="#3075C6"/>
</svg>
